M48
;DRILL file {Pcbnew (2013-07-07 BZR 4022)-stable} date 3/7/2014 3:46:47 AM
;FORMAT={-:-/ absolute / inch / decimal}
FMAT,2
INCH,TZ
T1C0.025
T2C0.040
T3C0.060
T4C0.070
%
G90
G05
M72
T1
X0.34Y-0.62
X0.39Y-0.67
X0.42Y-0.54
X0.48Y-0.6
X0.56Y-0.24
X0.57Y-0.54
X0.57Y-0.6
X0.58Y-0.48
T2
X0.1Y-0.1
X0.1Y-0.2
X0.1Y-0.3
X0.1Y-0.4
X0.1Y-0.5
X0.1Y-0.6
X0.1Y-0.7
X0.1Y-0.8
X0.1Y-0.9
X0.1Y-1.
X0.1Y-1.1
X0.8Y-0.1
X0.8Y-0.2
X0.8Y-0.3
X0.8Y-0.4
X0.8Y-0.5
X0.8Y-0.6
X0.8Y-0.7
X0.8Y-0.8
X0.8Y-0.9
X0.8Y-1.
X0.8Y-1.1
T3
X0.45Y-1.
T4
X0.35Y-0.9
X0.35Y-1.1
X0.55Y-0.9
X0.55Y-1.1
T0
M30
