G04 (created by PCBNEW (2013-07-07 BZR 4022)-stable) date 3/7/2014 3:43:31 AM*
%MOIN*%
G04 Gerber Fmt 3.4, Leading zero omitted, Abs format*
%FSLAX34Y34*%
G01*
G70*
G90*
G04 APERTURE LIST*
%ADD10C,0.00590551*%
%ADD11C,0.06*%
%ADD12R,0.06X0.06*%
%ADD13R,0.0787402X0.0314961*%
%ADD14R,0.0472441X0.0472441*%
%ADD15C,0.1*%
G04 APERTURE END LIST*
G54D10*
G54D11*
X8000Y-1000D03*
X8000Y-2000D03*
X8000Y-3000D03*
X8000Y-4000D03*
X8000Y-5000D03*
X8000Y-6000D03*
X8000Y-7000D03*
X8000Y-8000D03*
X8000Y-9000D03*
X8000Y-10000D03*
X8000Y-11000D03*
G54D12*
X1000Y-1000D03*
G54D11*
X1000Y-2000D03*
X1000Y-3000D03*
X1000Y-4000D03*
X1000Y-5000D03*
X1000Y-6000D03*
X1000Y-7000D03*
X1000Y-8000D03*
X1000Y-9000D03*
X1000Y-10000D03*
X1000Y-11000D03*
G54D13*
X2570Y-1478D03*
X2570Y-1978D03*
X2570Y-2478D03*
X2570Y-2978D03*
X2570Y-3478D03*
X2570Y-3978D03*
X2570Y-4478D03*
X2570Y-4978D03*
X2570Y-5478D03*
X2570Y-5978D03*
X2570Y-6478D03*
X6586Y-6478D03*
X6586Y-5978D03*
X6586Y-5478D03*
X6586Y-4978D03*
X6586Y-4478D03*
X6586Y-3978D03*
X6586Y-3478D03*
X6586Y-2978D03*
X6586Y-2478D03*
X6586Y-1978D03*
X6586Y-1478D03*
G54D14*
X3791Y-3191D03*
X3791Y-3900D03*
X3791Y-4608D03*
X4500Y-3191D03*
X4500Y-3900D03*
X4500Y-4608D03*
X5208Y-3191D03*
X5208Y-3900D03*
X5208Y-4608D03*
G54D15*
X4500Y-10000D03*
X3500Y-9000D03*
X5500Y-9000D03*
X5500Y-11000D03*
X3500Y-11000D03*
M02*
